<svg width="375" height="812" viewBox="0 0 375 812" fill="none" xmlns="http://www.w3.org/2000/svg">
    <mask id="mask0_763_3937" style="mask-type:alpha" maskUnits="userSpaceOnUse" x="78" y="59" width="610" height="832">
    <path d="M687.056 122.061C444.228 93.1697 179.176 61.7362 167.179 59.4974L78.0504 827.476L597.928 890.04L687.056 122.061Z" fill="url(#paint0_linear_763_3937)"/>
    </mask>
    <g mask="url(#mask0_763_3937)">
    <path d="M191.248 400.284C184.77 454.107 234.987 506.058 284.89 512.064C334.792 518.069 402.902 504.162 409.852 446.415C413.296 417.799 450.836 387.067 430.077 350.078C408.945 312.424 339.937 312.103 314.764 309.074C264.861 303.068 197.725 346.461 191.248 400.284Z" fill="#6202FE"/>
    <g filter="url(#filter0_f_763_3937)">
    <path d="M195.599 400.154C188.653 457.877 226.896 504.389 265.638 509.052C304.381 513.714 357.845 498.054 364.791 440.33C368.234 411.726 399.32 380.232 384.116 343.925C368.64 306.966 314.853 308.474 295.309 306.122C256.567 301.459 202.546 342.43 195.599 400.154Z" fill="#6202FE"/>
    </g>
    <g filter="url(#filter1_f_763_3937)">
    <path d="M195.39 401.901C187.604 466.598 235.392 519.322 283.231 525.079C331.07 530.836 396.788 513.981 404.574 449.284C408.432 417.224 450.796 382.831 431.557 341.874C411.973 300.18 341.619 300.658 317.487 297.754C269.648 291.997 203.175 337.204 195.39 401.901Z" fill="#6202FE"/>
    </g>
    <g filter="url(#filter2_f_763_3937)">
    <path d="M210.113 411.274C213.473 492.712 274.101 567.131 335.994 574.579C397.888 582.028 469.677 549.538 479.014 471.947C483.642 433.497 557.047 392.186 531.723 342.795C505.944 292.517 392.347 283.52 361.124 279.762C299.231 272.314 206.222 316.932 210.113 411.274Z" fill="#6202FE"/>
    </g>
    <g filter="url(#filter3_f_763_3937)">
    <path d="M223.282 434.084C213.228 517.63 283.599 605.117 344.112 612.399C404.626 619.681 475.298 583.901 485.352 500.356C490.335 458.955 519.478 411.466 495.263 358.652C470.613 304.889 348.076 265.372 317.55 261.699C257.036 254.416 233.336 350.539 223.282 434.084Z" fill="#6202FE"/>
    </g>
    <g filter="url(#filter4_f_763_3937)">
    <path d="M242.806 475.474C232.416 561.81 305.033 645.952 366.927 653.4C428.821 660.849 501.16 623.79 511.55 537.453C516.698 494.669 440.653 420.711 415.948 366.171C390.8 310.651 304.969 312.258 273.746 308.501C211.853 301.052 253.196 389.138 242.806 475.474Z" fill="#6202FE"/>
    </g>
    <g filter="url(#filter5_f_763_3937)">
    <path d="M240.778 409.353C231.687 484.897 305.422 559.748 367.316 567.196C429.21 574.645 500.87 543.224 509.961 467.68C514.467 430.244 536.401 386.771 510.931 338.585C485.005 289.533 399.351 289.67 368.128 285.912C306.235 278.464 249.869 333.808 240.778 409.353Z" fill="#6202FE"/>
    </g>
    </g>
    <g filter="url(#filter6_f_763_3937)">
    <ellipse rx="126.879" ry="192.912" transform="matrix(0.998071 -0.0620851 -0.0620851 -0.998071 137.758 146.787)" fill="#6202FE"/>
    </g>
    <mask id="mask1_763_3937" style="mask-type:alpha" maskUnits="userSpaceOnUse" x="6" y="-155" width="380" height="677">
    <path d="M6.58787 -154.119L363.801 -63.8749L385.213 272.753L369.621 386.753L185.657 521.4L30.9363 472.813L9.32914 125.46L6.58787 -154.119Z" fill="url(#paint1_linear_763_3937)"/>
    </mask>
    <g mask="url(#mask1_763_3937)">
    </g>
    <mask id="mask2_763_3937" style="mask-type:alpha" maskUnits="userSpaceOnUse" x="-13" y="-119" width="419" height="627">
    <path d="M25.0345 507.09C188.586 496.651 397.221 483.302 405.407 483.429L367.936 -118.952L-12.4366 -95.2906L25.0345 507.09Z" fill="url(#paint2_linear_763_3937)"/>
    </mask>
    <g mask="url(#mask2_763_3937)">
    <path d="M337.667 233.507C333.441 165.566 271.307 112.088 218.789 115.355C166.27 118.622 99.0598 150.411 103.594 223.306C105.841 259.429 73.4623 305.472 102.285 346.762C131.625 388.794 202.636 374.404 229.129 372.756C281.648 369.489 341.893 301.447 337.667 233.507Z" fill="#6202FE"/>
    <g filter="url(#filter7_f_763_3937)">
    <path d="M333.219 234.601C328.687 161.737 275.089 112.722 229.946 115.53C184.803 118.338 127.271 149.514 131.803 222.379C134.049 258.487 105.425 304.279 130.574 345.78C156.175 388.027 217.127 374.267 239.9 372.85C285.043 370.042 337.752 307.466 333.219 234.601Z" fill="#6202FE"/>
    </g>
    <g filter="url(#filter8_f_763_3937)">
    <path d="M333.081 232.394C328.001 150.727 262.286 96.1413 206.63 99.6034C150.974 103.066 79.852 138.421 84.9321 220.088C87.4496 260.558 46.6694 312.423 77.3758 358.781C108.634 405.972 188.557 389.828 216.633 388.081C272.289 384.619 338.162 314.061 333.081 232.394Z" fill="#6202FE"/>
    </g>
    <g filter="url(#filter9_f_763_3937)">
    <path d="M325.904 223.378C305.98 123.398 228.598 44.3688 163.46 48.4208C98.3223 52.4727 31.088 108.029 37.1805 205.973C40.1997 254.509 -26.9125 321.318 9.1119 376.965C45.7835 433.611 133.793 414.737 166.652 412.693C231.79 408.642 348.985 339.2 325.904 223.378Z" fill="#6202FE"/>
    </g>
    <g filter="url(#filter10_f_763_3937)">
    <path d="M297.429 191.047C290.869 85.5874 201.297 0.0187494 137.611 3.98034C73.9252 7.94193 8.50496 67.3282 15.0651 172.788C18.3159 225.048 -2.04185 290.014 33.5347 350.131C69.7503 411.327 155.716 391.552 187.843 389.554C251.529 385.592 303.989 296.506 297.429 191.047Z" fill="#6202FE"/>
    </g>
    <g filter="url(#filter11_f_763_3937)">
    <path d="M269.455 151.582C262.675 42.5998 171.001 -45.8829 105.863 -41.8309C40.7252 -37.779 -26.1503 23.5457 -19.371 132.528C-16.0116 186.535 -36.7917 253.655 -0.363009 315.801C36.7201 379.063 124.637 358.685 157.496 356.641C222.634 352.589 276.234 260.565 269.455 151.582Z" fill="#6202FE"/>
    </g>
    <g filter="url(#filter12_f_763_3937)">
    <path d="M284.912 232.908C278.98 137.548 188.036 60.7932 122.898 64.8451C57.7595 68.897 -9.55883 123.104 -3.62697 218.464C-0.687438 265.719 -14.4453 324.174 21.4845 378.299C58.0597 433.397 146.092 414.876 178.951 412.832C244.089 408.78 290.844 328.268 284.912 232.908Z" fill="#6202FE"/>
    </g>
    </g>
    <g filter="url(#filter13_f_763_3937)">
    <path d="M71.5485 315.078C91.9818 321.827 138.498 307.611 187.373 289.001L251.906 284.987C308.042 281.495 287.273 193.144 250.126 120.909C212.979 48.675 214.67 50.457 160.224 55.731C105.779 61.005 130.809 23.1191 104.423 -20.061C78.0369 -63.2411 126.161 27.5562 87.3185 80.4555C48.4756 133.355 38.1948 100.594 77.5863 175.048C116.978 249.502 98.4175 247.505 78.6291 251.095C58.8406 254.685 57.4341 232.126 39.2179 235.618C21.0018 239.11 30.0099 248.458 41.9076 278.857C53.8053 309.256 51.1153 308.328 71.5485 315.078Z" fill="#50DFFF"/>
    </g>
    <mask id="mask3_763_3937" style="mask-type:alpha" maskUnits="userSpaceOnUse" x="-164" y="35" width="581" height="401">
    <path d="M416.893 93.9218L294.354 435.81L18.4641 412.862L-73.3738 382.453L-163.911 182.553L-103.009 35.7172L186.139 59.9277L416.893 93.9218Z" fill="url(#paint3_linear_763_3937)"/>
    </mask>
    <g mask="url(#mask3_763_3937)">
    <mask id="mask4_763_3937" style="mask-type:alpha" maskUnits="userSpaceOnUse" x="-159" y="40" width="546" height="392">
    <path d="M-129.522 40.437C-142.976 203.768 -157.594 382.045 -158.802 390.134L357.701 431.183L386.982 81.4858L-129.522 40.437Z" fill="url(#paint4_linear_763_3937)"/>
    </mask>
    <g mask="url(#mask4_763_3937)">
    <path d="M52.8229 370.885C109.379 375.621 161.826 321.113 166.217 268.677C170.607 216.24 153.475 145.51 92.7959 140.429C62.7263 137.911 29.1511 99.8018 -8.7605 122.923C-47.3532 146.459 -45.072 218.668 -47.2869 245.12C-51.6774 297.556 -3.73287 366.15 52.8229 370.885Z" fill="#6202FE"/>
    <g filter="url(#filter14_f_763_3937)">
    <path d="M52.5216 366.337C113.176 371.416 160.387 329.642 163.796 288.932C167.205 248.222 148.794 192.881 88.1388 187.803C58.0815 185.286 23.9535 153.958 -13.4546 171.24C-51.5347 188.834 -47.9178 245.049 -49.6373 265.585C-53.046 306.295 -8.13305 361.259 52.5216 366.337Z" fill="#6202FE"/>
    </g>
    <g filter="url(#filter15_f_763_3937)">
    <path d="M54.3576 366.491C122.34 372.183 175.688 320.186 179.897 269.918C184.106 219.65 163.98 151.535 95.9978 145.843C62.3094 143.022 24.7205 100.004 -17.4002 121.685C-60.2776 143.756 -57.1096 217.343 -59.2328 242.7C-63.4418 292.968 -13.6245 360.798 54.3576 366.491Z" fill="#6202FE"/>
    </g>
    <g filter="url(#filter16_f_763_3937)">
    <path d="M63.6048 350.731C148.68 344.128 224.239 277.876 229.684 212.84C235.13 147.803 198.416 73.9283 116.885 67.1016C76.4822 63.7187 30.4791 -11.5127 -20.2343 16.8548C-71.8588 45.732 -76.9636 164.92 -79.7106 197.728C-85.1562 262.764 -34.9494 358.38 63.6048 350.731Z" fill="#6202FE"/>
    </g>
    <g filter="url(#filter17_f_763_3937)">
    <path d="M86.9702 336.088C174.758 343.439 263.619 266.499 268.943 202.912C274.268 139.326 234.154 66.7444 146.366 59.3939C102.863 55.7514 52.074 27.0617 -2.26251 54.3988C-57.5752 82.227 -94.271 211.925 -96.9568 244.001C-102.281 307.588 -0.817394 328.738 86.9702 336.088Z" fill="#6202FE"/>
    </g>
    <g filter="url(#filter18_f_763_3937)">
    <path d="M129.532 314.093C220.253 321.689 305.529 242.525 310.975 177.488C316.42 112.452 274.905 38.175 184.185 30.579C139.228 26.8147 64.7358 109.179 8.61215 137.094C-48.5198 165.51 -43.5836 255.247 -46.3306 288.055C-51.7761 353.091 38.812 306.497 129.532 314.093Z" fill="#6202FE"/>
    </g>
    <g filter="url(#filter19_f_763_3937)">
    <path d="M60.432 318.722C139.812 325.368 215.326 245.387 220.772 180.35C226.217 115.314 190.627 41.533 111.247 34.8865C71.9101 31.5928 25.5965 10.2936 -23.8507 38.7672C-74.1863 67.7522 -70.7954 157.36 -73.5425 190.167C-78.988 255.204 -18.9483 312.075 60.432 318.722Z" fill="#6202FE"/>
    </g>
    </g>
    </g>
    <mask id="mask5_763_3937" style="mask-type:alpha" maskUnits="userSpaceOnUse" x="-185" y="-251" width="672" height="772">
    <path d="M486.78 -99.5908C331.885 -148.503 20.2188 -247.104 12.7161 -250.205L-184.328 369.999L289.736 520.613L486.78 -99.5908Z" fill="url(#paint5_linear_763_3937)"/>
    </mask>
    <g mask="url(#mask5_763_3937)">
    <path d="M-49.403 17.0151C-55.7512 86.3301 -34.869 163.394 14.8371 179.186C64.5432 194.978 138.77 187.386 162.614 112.334C174.43 75.1428 207.283 86.879 196.569 34.8282C185.662 -18.1577 114.62 -29.4683 89.5456 -37.4346C39.8395 -53.2267 -43.0548 -52.2999 -49.403 17.0151Z" fill="#FF3093"/>
    <g filter="url(#filter20_f_763_3937)">
    <path d="M-49.0605 26.0492C-47.4499 142.902 -38.1128 161.381 4.61295 174.956C47.3387 188.53 112.401 178.039 136.236 103.019C148.047 65.8423 177.056 77.3585 169.812 26.4301C162.438 -25.4133 99.7027 -34.0892 78.1497 -40.9368C35.4239 -54.5112 -52.707 -32.5705 -49.0605 26.0492Z" fill="#FF3093"/>
    </g>
    <g filter="url(#filter21_f_763_3937)">
    <path d="M-45.5989 19.8021C-59.9865 154.325 -4.85815 229.653 47.8174 246.388C100.493 263.124 151.881 206.439 178.596 122.355C191.834 80.6875 224.483 121.694 213.98 63.8551C203.288 4.97764 119.752 -18.7793 93.1796 -27.2215C40.504 -43.957 -18.8848 -64.2815 -45.5989 19.8021Z" fill="#FF3093"/>
    </g>
    <g filter="url(#filter22_f_763_3937)">
    <path d="M-42.4454 31.4884C-56.9545 149.884 -18.321 283.791 43.3289 303.377C104.979 322.964 185.181 254.76 217.219 153.919C233.095 103.947 295.783 139.471 283.945 70.3469C271.895 -0.0194509 183.446 -12.9908 152.346 -22.8713C90.6964 -42.4581 -27.9362 -86.907 -42.4454 31.4884Z" fill="#FF3093"/>
    </g>
    <g filter="url(#filter23_f_763_3937)">
    <path d="M-37.4978 120.791C-26.1944 302.504 -22.2193 305.821 38.0562 324.971C98.3318 344.121 190.366 303.951 224.863 195.371C241.958 141.565 235.376 124.955 225.67 51.4918C215.79 -23.2912 112.497 -36.2471 82.0905 -45.9074C21.8149 -65.0574 -44.0529 15.4125 -37.4978 120.791Z" fill="#FF3093"/>
    </g>
    <g filter="url(#filter24_f_763_3937)">
    <path d="M-17.9721 124.296C-53.6214 236.503 -3.07036 358.913 58.5796 378.499C120.229 398.086 205.503 360.631 241.153 248.424C258.819 192.82 291.06 99.3249 281.349 23.5086C271.462 -53.6697 123.774 1.17556 92.6743 -8.70499C31.0243 -28.2917 17.6772 12.0887 -17.9721 124.296Z" fill="#FF3093"/>
    </g>
    <g filter="url(#filter25_f_763_3937)">
    <path d="M-0.959961 36.7861C-32.1531 134.968 22.2342 245.302 83.8841 264.889C145.534 284.476 228.48 254.349 259.673 156.168C275.131 107.514 280.855 146.324 268.519 78.7654C255.963 9.9933 167.629 -3.34055 136.529 -13.2211C74.8794 -32.8078 30.2332 -61.3953 -0.959961 36.7861Z" fill="#FF3093"/>
    </g>
    </g>
    <g opacity="0.6" filter="url(#filter26_f_763_3937)">
    <path d="M236.091 154.974C230.888 71.3442 149.451 -20.4769 106.913 -17.8308C64.3755 -15.1848 -36.3291 -71.2974 61.5064 130.19C66.7086 213.82 -9.6531 318.078 125.752 285.019C168.289 282.373 116.049 198.085 236.091 154.974Z" fill="#0267FF"/>
    </g>
    <defs>
    <filter id="filter0_f_763_3937" x="191.173" y="302.156" width="200.71" height="211.272" filterUnits="userSpaceOnUse" color-interpolation-filters="sRGB">
    <feFlood flood-opacity="0" result="BackgroundImageFix"/>
    <feBlend mode="normal" in="SourceGraphic" in2="BackgroundImageFix" result="shape"/>
    <feGaussianBlur stdDeviation="1.80215" result="effect1_foregroundBlur_763_3937"/>
    </filter>
    <filter id="filter1_f_763_3937" x="181.936" y="284.645" width="267.223" height="254.1" filterUnits="userSpaceOnUse" color-interpolation-filters="sRGB">
    <feFlood flood-opacity="0" result="BackgroundImageFix"/>
    <feBlend mode="normal" in="SourceGraphic" in2="BackgroundImageFix" result="shape"/>
    <feGaussianBlur stdDeviation="6.30752" result="effect1_foregroundBlur_763_3937"/>
    </filter>
    <filter id="filter2_f_763_3937" x="191.974" y="260.941" width="363.071" height="332.698" filterUnits="userSpaceOnUse" color-interpolation-filters="sRGB">
    <feFlood flood-opacity="0" result="BackgroundImageFix"/>
    <feBlend mode="normal" in="SourceGraphic" in2="BackgroundImageFix" result="shape"/>
    <feGaussianBlur stdDeviation="9.01074" result="effect1_foregroundBlur_763_3937"/>
    </filter>
    <filter id="filter3_f_763_3937" x="173.658" y="212.651" width="379.759" height="449.327" filterUnits="userSpaceOnUse" color-interpolation-filters="sRGB">
    <feFlood flood-opacity="0" result="BackgroundImageFix"/>
    <feBlend mode="normal" in="SourceGraphic" in2="BackgroundImageFix" result="shape"/>
    <feGaussianBlur stdDeviation="24.329" result="effect1_foregroundBlur_763_3937"/>
    </filter>
    <filter id="filter4_f_763_3937" x="118.038" y="187.315" width="514.505" height="587.761" filterUnits="userSpaceOnUse" color-interpolation-filters="sRGB">
    <feFlood flood-opacity="0" result="BackgroundImageFix"/>
    <feBlend mode="normal" in="SourceGraphic" in2="BackgroundImageFix" result="shape"/>
    <feGaussianBlur stdDeviation="60.372" result="effect1_foregroundBlur_763_3937"/>
    </filter>
    <filter id="filter5_f_763_3937" x="184.147" y="229.374" width="394.755" height="394.755" filterUnits="userSpaceOnUse" color-interpolation-filters="sRGB">
    <feFlood flood-opacity="0" result="BackgroundImageFix"/>
    <feBlend mode="normal" in="SourceGraphic" in2="BackgroundImageFix" result="shape"/>
    <feGaussianBlur stdDeviation="27.9333" result="effect1_foregroundBlur_763_3937"/>
    </filter>
    <filter id="filter6_f_763_3937" x="-57.6921" y="-114.159" width="390.899" height="521.892" filterUnits="userSpaceOnUse" color-interpolation-filters="sRGB">
    <feFlood flood-opacity="0" result="BackgroundImageFix"/>
    <feBlend mode="normal" in="SourceGraphic" in2="BackgroundImageFix" result="shape"/>
    <feGaussianBlur stdDeviation="34.1209" result="effect1_foregroundBlur_763_3937"/>
    </filter>
    <filter id="filter7_f_763_3937" x="117.437" y="112.685" width="218.785" height="266.151" filterUnits="userSpaceOnUse" color-interpolation-filters="sRGB">
    <feFlood flood-opacity="0" result="BackgroundImageFix"/>
    <feBlend mode="normal" in="SourceGraphic" in2="BackgroundImageFix" result="shape"/>
    <feGaussianBlur stdDeviation="1.36484" result="effect1_foregroundBlur_763_3937"/>
    </filter>
    <filter id="filter8_f_763_3937" x="56.3205" y="89.8939" width="286.591" height="311.803" filterUnits="userSpaceOnUse" color-interpolation-filters="sRGB">
    <feFlood flood-opacity="0" result="BackgroundImageFix"/>
    <feBlend mode="normal" in="SourceGraphic" in2="BackgroundImageFix" result="shape"/>
    <feGaussianBlur stdDeviation="4.77693" result="effect1_foregroundBlur_763_3937"/>
    </filter>
    <filter id="filter9_f_763_3937" x="-15.1929" y="34.6233" width="357.711" height="396.359" filterUnits="userSpaceOnUse" color-interpolation-filters="sRGB">
    <feFlood flood-opacity="0" result="BackgroundImageFix"/>
    <feBlend mode="normal" in="SourceGraphic" in2="BackgroundImageFix" result="shape"/>
    <feGaussianBlur stdDeviation="6.82419" result="effect1_foregroundBlur_763_3937"/>
    </filter>
    <filter id="filter10_f_763_3937" x="-24.683" y="-33.0025" width="359.518" height="464.024" filterUnits="userSpaceOnUse" color-interpolation-filters="sRGB">
    <feFlood flood-opacity="0" result="BackgroundImageFix"/>
    <feBlend mode="normal" in="SourceGraphic" in2="BackgroundImageFix" result="shape"/>
    <feGaussianBlur stdDeviation="18.4253" result="effect1_foregroundBlur_763_3937"/>
    </filter>
    <filter id="filter11_f_763_3937" x="-113.721" y="-133.409" width="475.199" height="586.226" filterUnits="userSpaceOnUse" color-interpolation-filters="sRGB">
    <feFlood flood-opacity="0" result="BackgroundImageFix"/>
    <feBlend mode="normal" in="SourceGraphic" in2="BackgroundImageFix" result="shape"/>
    <feGaussianBlur stdDeviation="45.7221" result="effect1_foregroundBlur_763_3937"/>
    </filter>
    <filter id="filter12_f_763_3937" x="-46.3024" y="22.3817" width="374.031" height="437.38" filterUnits="userSpaceOnUse" color-interpolation-filters="sRGB">
    <feFlood flood-opacity="0" result="BackgroundImageFix"/>
    <feBlend mode="normal" in="SourceGraphic" in2="BackgroundImageFix" result="shape"/>
    <feGaussianBlur stdDeviation="21.155" result="effect1_foregroundBlur_763_3937"/>
    </filter>
    <filter id="filter13_f_763_3937" x="-17.5404" y="-77.7644" width="350.44" height="440.953" filterUnits="userSpaceOnUse" color-interpolation-filters="sRGB">
    <feFlood flood-opacity="0" result="BackgroundImageFix"/>
    <feBlend mode="normal" in="SourceGraphic" in2="BackgroundImageFix" result="shape"/>
    <feGaussianBlur stdDeviation="23.2022" result="effect1_foregroundBlur_763_3937"/>
    </filter>
    <filter id="filter14_f_763_3937" x="-52.5488" y="163.335" width="219.465" height="206.153" filterUnits="userSpaceOnUse" color-interpolation-filters="sRGB">
    <feFlood flood-opacity="0" result="BackgroundImageFix"/>
    <feBlend mode="normal" in="SourceGraphic" in2="BackgroundImageFix" result="shape"/>
    <feGaussianBlur stdDeviation="1.36484" result="effect1_foregroundBlur_763_3937"/>
    </filter>
    <filter id="filter15_f_763_3937" x="-69.0348" y="106.047" width="259.017" height="270.426" filterUnits="userSpaceOnUse" color-interpolation-filters="sRGB">
    <feFlood flood-opacity="0" result="BackgroundImageFix"/>
    <feBlend mode="normal" in="SourceGraphic" in2="BackgroundImageFix" result="shape"/>
    <feGaussianBlur stdDeviation="4.77693" result="effect1_foregroundBlur_763_3937"/>
    </filter>
    <filter id="filter16_f_763_3937" x="-93.7595" y="-3.17304" width="337.619" height="367.984" filterUnits="userSpaceOnUse" color-interpolation-filters="sRGB">
    <feFlood flood-opacity="0" result="BackgroundImageFix"/>
    <feBlend mode="normal" in="SourceGraphic" in2="BackgroundImageFix" result="shape"/>
    <feGaussianBlur stdDeviation="6.82419" result="effect1_foregroundBlur_763_3937"/>
    </filter>
    <filter id="filter17_f_763_3937" x="-134.008" y="5.85812" width="440.27" height="367.57" filterUnits="userSpaceOnUse" color-interpolation-filters="sRGB">
    <feFlood flood-opacity="0" result="BackgroundImageFix"/>
    <feBlend mode="normal" in="SourceGraphic" in2="BackgroundImageFix" result="shape"/>
    <feGaussianBlur stdDeviation="18.4253" result="effect1_foregroundBlur_763_3937"/>
    </filter>
    <filter id="filter18_f_763_3937" x="-138.009" y="-60.9901" width="540.901" height="475.65" filterUnits="userSpaceOnUse" color-interpolation-filters="sRGB">
    <feFlood flood-opacity="0" result="BackgroundImageFix"/>
    <feBlend mode="normal" in="SourceGraphic" in2="BackgroundImageFix" result="shape"/>
    <feGaussianBlur stdDeviation="45.7221" result="effect1_foregroundBlur_763_3937"/>
    </filter>
    <filter id="filter19_f_763_3937" x="-116.195" y="-18.1662" width="379.818" height="379.586" filterUnits="userSpaceOnUse" color-interpolation-filters="sRGB">
    <feFlood flood-opacity="0" result="BackgroundImageFix"/>
    <feBlend mode="normal" in="SourceGraphic" in2="BackgroundImageFix" result="shape"/>
    <feGaussianBlur stdDeviation="21.155" result="effect1_foregroundBlur_763_3937"/>
    </filter>
    <filter id="filter20_f_763_3937" x="-51.9" y="-47.5497" width="225.587" height="230.293" filterUnits="userSpaceOnUse" color-interpolation-filters="sRGB">
    <feFlood flood-opacity="0" result="BackgroundImageFix"/>
    <feBlend mode="normal" in="SourceGraphic" in2="BackgroundImageFix" result="shape"/>
    <feGaussianBlur stdDeviation="1.36484" result="effect1_foregroundBlur_763_3937"/>
    </filter>
    <filter id="filter21_f_763_3937" x="-57.4731" y="-51.769" width="283.055" height="310.644" filterUnits="userSpaceOnUse" color-interpolation-filters="sRGB">
    <feFlood flood-opacity="0" result="BackgroundImageFix"/>
    <feBlend mode="normal" in="SourceGraphic" in2="BackgroundImageFix" result="shape"/>
    <feGaussianBlur stdDeviation="4.77693" result="effect1_foregroundBlur_763_3937"/>
    </filter>
    <filter id="filter22_f_763_3937" x="-59.1462" y="-61.1511" width="358.218" height="381.535" filterUnits="userSpaceOnUse" color-interpolation-filters="sRGB">
    <feFlood flood-opacity="0" result="BackgroundImageFix"/>
    <feBlend mode="normal" in="SourceGraphic" in2="BackgroundImageFix" result="shape"/>
    <feGaussianBlur stdDeviation="6.82419" result="effect1_foregroundBlur_763_3937"/>
    </filter>
    <filter id="filter23_f_763_3937" x="-74.8009" y="-85.5891" width="347.082" height="452.01" filterUnits="userSpaceOnUse" color-interpolation-filters="sRGB">
    <feFlood flood-opacity="0" result="BackgroundImageFix"/>
    <feBlend mode="normal" in="SourceGraphic" in2="BackgroundImageFix" result="shape"/>
    <feGaussianBlur stdDeviation="18.4253" result="effect1_foregroundBlur_763_3937"/>
    </filter>
    <filter id="filter24_f_763_3937" x="-121.248" y="-109.905" width="495.827" height="584.807" filterUnits="userSpaceOnUse" color-interpolation-filters="sRGB">
    <feFlood flood-opacity="0" result="BackgroundImageFix"/>
    <feBlend mode="normal" in="SourceGraphic" in2="BackgroundImageFix" result="shape"/>
    <feGaussianBlur stdDeviation="45.7221" result="effect1_foregroundBlur_763_3937"/>
    </filter>
    <filter id="filter25_f_763_3937" x="-52.3428" y="-75.0697" width="369.87" height="387.923" filterUnits="userSpaceOnUse" color-interpolation-filters="sRGB">
    <feFlood flood-opacity="0" result="BackgroundImageFix"/>
    <feBlend mode="normal" in="SourceGraphic" in2="BackgroundImageFix" result="shape"/>
    <feGaussianBlur stdDeviation="21.155" result="effect1_foregroundBlur_763_3937"/>
    </filter>
    <filter id="filter26_f_763_3937" x="-37.2144" y="-80.4067" width="330.628" height="429.027" filterUnits="userSpaceOnUse" color-interpolation-filters="sRGB">
    <feFlood flood-opacity="0" result="BackgroundImageFix"/>
    <feBlend mode="normal" in="SourceGraphic" in2="BackgroundImageFix" result="shape"/>
    <feGaussianBlur stdDeviation="28.6616" result="effect1_foregroundBlur_763_3937"/>
    </filter>
    <linearGradient id="paint0_linear_763_3937" x1="275.534" y1="385.878" x2="598.337" y2="390.781" gradientUnits="userSpaceOnUse">
    <stop stop-color="#C4C4C4"/>
    <stop offset="1" stop-color="#C4C4C4" stop-opacity="0"/>
    </linearGradient>
    <linearGradient id="paint1_linear_763_3937" x1="199.567" y1="243.611" x2="87.4434" y2="399.133" gradientUnits="userSpaceOnUse">
    <stop stop-color="#C4C4C4"/>
    <stop offset="1" stop-color="#C4C4C4" stop-opacity="0"/>
    </linearGradient>
    <linearGradient id="paint2_linear_763_3937" x1="329.483" y1="235.32" x2="59.5312" y2="243.499" gradientUnits="userSpaceOnUse">
    <stop stop-color="#C4C4C4"/>
    <stop offset="1" stop-color="#C4C4C4" stop-opacity="0"/>
    </linearGradient>
    <linearGradient id="paint3_linear_763_3937" x1="151.189" y1="294.341" x2="-32.8779" y2="263.596" gradientUnits="userSpaceOnUse">
    <stop stop-color="#C4C4C4"/>
    <stop offset="0.943414" stop-color="#C4C4C4" stop-opacity="0"/>
    </linearGradient>
    <linearGradient id="paint4_linear_763_3937" x1="57.1547" y1="309.642" x2="52.6026" y2="93.3319" gradientUnits="userSpaceOnUse">
    <stop stop-color="#C4C4C4"/>
    <stop offset="1" stop-color="#C4C4C4" stop-opacity="0"/>
    </linearGradient>
    <linearGradient id="paint5_linear_763_3937" x1="-41.1537" y1="18.1637" x2="228.145" y2="279.282" gradientUnits="userSpaceOnUse">
    <stop stop-color="#C4C4C4"/>
    <stop offset="1" stop-color="#C4C4C4" stop-opacity="0"/>
    </linearGradient>
    </defs>
    </svg>
    